# xmcd
#
# Track frame offsets: 
#        150
#        26502
#        53377
#        75292
#        95970
#        118797
#        139875
#        162777
#
# Disc length: 2519 seconds
#
# Revision: 4
# Processed by: cddbd v1.5.2PL0 Copyright (c) Steve Scherf et al.
# Submitted via: ExactAudioCopyFreeDBPlugin 1.0
#
DISCID=5c09d508
DTITLE=Teddy Pendergrass - Teddy
DYEAR=1983
DGENRE=SMB
TTITLE0=Come Go with Me
TTITLE1=Turn Off the Lights
TTITLE2=I'll Never See Heaven Again
TTITLE3=All I Need is You
TTITLE4=If You Know Like I Know
TTITLE5=Do Me
TTITLE6=Set Me Free
TTITLE7=Life is a Circle
EXTD=
EXTT0=
EXTT1=
EXTT2=
EXTT3=
EXTT4=
EXTT5=
EXTT6=
EXTT7=
PLAYORDER=
